<svg viewBox="0 0 22 20" aria-hidden="true" version="1.1" xmlns="http://www.w3.org/2000/svg" xmlns:xlink="http://www.w3.org/1999/xlink">
	<title>keyboard</title>
	<path d="M20.6 2.5H2c-1 0-1.9.8-1.9 1.9v11.2c0 1 .8 1.9 1.9 1.9h18.7c1 0 1.9-.8 1.9-1.9V4.4c0-1-.8-1.9-1.9-1.9zm.3 13.1c0 .2-.1.3-.3.3H2a.3.3 0 0 1-.3-.3V4.4c0-.2.1-.3.3-.3h18.7c.2 0 .3.1.3.3v11.2zm-14.3-5V9.4c0-.3-.2-.5-.4-.5H5c-.3 0-.5.2-.5.5v1c0 .3.2.5.5.5h1c.3 0 .5-.2.5-.5zm3.8 0V9.4c0-.3-.2-.5-.5-.5H9c-.3 0-.5.2-.5.5v1c0 .3.2.5.4.5H10c.3 0 .5-.2.5-.5zm3.7 0V9.4c0-.3-.2-.5-.4-.5h-1.1c-.3 0-.5.2-.5.5v1c0 .3.2.5.5.5h1c.3 0 .5-.2.5-.5zm3.8 0V9.4c0-.3-.2-.5-.5-.5h-1c-.3 0-.5.2-.5.5v1c0 .3.2.5.4.5h1.1c.3 0 .5-.2.5-.5zM4.8 7.2v-1c0-.3-.2-.5-.5-.5H3.2c-.3 0-.5.2-.5.4v1.1c0 .3.2.5.5.5h1.1c.3 0 .5-.2.5-.5zm3.7 0v-1c0-.3-.2-.5-.5-.5H7c-.3 0-.5.2-.5.4v1.1c0 .3.2.5.5.5h1c.3 0 .5-.2.5-.5zm3.8 0v-1c0-.3-.2-.5-.5-.5h-1.1c-.3 0-.5.2-.5.4v1.1c0 .3.2.5.5.5h1.1c.3 0 .5-.2.5-.5zm3.7 0v-1c0-.3-.2-.5-.5-.5h-1c-.3 0-.5.2-.5.4v1.1c0 .3.2.5.5.5h1c.3 0 .5-.2.5-.5zm3.8 0v-1c0-.3-.2-.5-.5-.5h-1.1c-.3 0-.5.2-.5.4v1.1c0 .3.2.5.5.5h1.1c.3 0 .5-.2.5-.5zm-2 6.2V13c0-.3-.2-.5-.6-.5h-12c-.3 0-.6.2-.6.5v.6c0 .3.3.5.7.5h12c.3 0 .6-.2.6-.5z"></path>
</svg>