<?xml version="1.0" standalone="no"?>
<!DOCTYPE svg PUBLIC "-//W3C//DTD SVG 20010904//EN"
 "http://www.w3.org/TR/2001/REC-SVG-20010904/DTD/svg10.dtd">
<svg version="1.0" xmlns="http://www.w3.org/2000/svg"
 width="70.000000pt" height="70.000000pt" viewBox="0 0 70.000000 70.000000"
 preserveAspectRatio="xMidYMid meet">
<metadata>
Created by potrace 1.14, written by Peter Selinger 2001-2017
</metadata>
<g transform="translate(0.000000,70.000000) scale(0.100000,-0.100000)"
fill="#000000" stroke="none">
<path d="M20 345 c0 -130 4 -205 10 -205 6 0 10 75 10 205 0 130 -4 205 -10
205 -6 0 -10 -75 -10 -205z"/>
<path d="M349 528 c-1 -13 -1 -31 0 -40 2 -12 -3 -16 -13 -12 -10 4 -16 1 -16
-7 0 -10 -2 -11 -12 0 -11 10 -9 15 6 27 11 7 17 16 14 19 -2 3 -13 -4 -22
-14 -14 -15 -15 -24 -7 -40 14 -25 14 -51 1 -51 -5 0 -10 9 -10 20 0 29 -19
63 -47 84 -21 15 -27 16 -34 5 -11 -18 -11 -90 0 -108 10 -16 -22 -91 -39 -91
-13 0 -13 17 0 25 6 3 10 11 10 17 0 7 -6 6 -15 -2 -20 -16 -20 -60 0 -60 19
0 19 -9 0 -34 -18 -23 -3 -56 25 -56 27 0 34 17 10 23 -27 7 -25 21 4 40 21
14 25 14 30 1 3 -8 15 -18 26 -22 19 -7 15 -11 -29 -34 -45 -23 -49 -27 -35
-39 13 -11 21 -10 47 4 31 18 46 12 47 -19 0 -17 25 -24 81 -24 47 0 51 2 61
30 5 17 13 29 17 28 65 -34 63 -34 80 -9 9 13 26 33 39 46 12 12 22 26 22 31
0 5 -4 3 -9 -4 -6 -11 -11 -10 -25 3 -20 20 -22 43 -3 26 8 -6 17 -8 20 -4 11
10 8 51 -4 58 -6 4 -14 17 -19 29 -8 19 -9 19 -9 2 -1 -11 6 -27 15 -37 9 -10
14 -23 12 -30 -2 -7 -14 4 -26 24 -20 35 -21 67 -1 67 5 0 9 16 9 34 0 28 -7
40 -32 59 -57 42 -65 45 -46 15 17 -25 17 -28 1 -37 -15 -8 -15 -12 -4 -25 17
-21 9 -29 -30 -31 -29 -2 -31 0 -25 27 3 18 2 27 -4 23 -6 -3 -10 -1 -10 5 0
7 -7 9 -16 6 -10 -4 -15 0 -13 12 3 35 -1 62 -11 62 -5 0 -11 -10 -11 -22z
m-32 -190 c-3 -8 -6 -5 -6 6 -1 11 2 17 5 13 3 -3 4 -12 1 -19z m57 14 c2 -4
-5 -9 -17 -9 -17 -2 -19 0 -7 7 18 12 18 12 24 2z m-102 -17 c0 -6 4 -20 9
-33 7 -19 6 -23 -8 -20 -11 2 -16 14 -17 36 -1 17 3 31 7 29 5 -1 9 -7 9 -12z
m211 9 c3 -4 0 -13 -8 -20 -8 -8 -12 -21 -9 -28 3 -8 -3 -17 -13 -20 -24 -8
-57 -62 -49 -82 4 -9 -1 -14 -15 -14 -16 0 -19 5 -15 23 3 12 3 16 0 10 -3 -7
-10 -13 -16 -13 -6 0 10 19 36 43 25 24 46 51 46 61 0 28 28 54 43 40z m-78
-43 c-3 -6 -11 -11 -16 -11 -5 0 -4 6 3 14 14 16 24 13 13 -3z m105 -31 c0
-13 5 -18 15 -14 13 5 14 2 6 -19 -5 -14 -7 -28 -4 -31 15 -14 -15 -3 -51 19
l-40 24 27 10 c15 6 27 18 27 26 0 9 5 13 10 10 6 -3 10 -15 10 -25z m-155 2
c-3 -3 -11 0 -18 7 -9 10 -8 11 6 5 10 -3 15 -9 12 -12z m-16 -32 c8 0 11 -6
7 -16 -4 -9 -1 -23 5 -30 9 -11 6 -14 -14 -14 -20 0 -24 4 -20 19 2 10 -3 25
-11 34 -23 23 -21 44 2 24 10 -10 24 -17 31 -17z"/>
<path d="M405 500 c21 -24 26 -25 19 -6 -3 8 -13 17 -22 21 -13 5 -13 2 3 -15z"/>
<path d="M169 413 c-10 -2 -19 -12 -22 -23 -4 -15 0 -18 22 -16 14 2 27 10 29
19 4 18 -7 25 -29 20z"/>
<path d="M560 381 c13 -25 33 -28 28 -4 -2 10 -11 19 -21 21 -16 3 -17 1 -7
-17z"/>
</g>
</svg>
