<svg aria-hidden="true" style="position: absolute; width: 0; height: 0; overflow: hidden;" version="1.1" xmlns="http://www.w3.org/2000/svg" xmlns:xlink="http://www.w3.org/1999/xlink">
<defs>
<symbol id="frm_form_icon" viewBox="0 0 24 24" fill="none"><rect x="1" y="4" width="22" height="4" rx="2" fill="#fff"/><rect x="1" y="10" width="22" height="4" rx="2" fill="#fff"/><rect x="1" y="16" width="22" height="4" rx="2" fill="#fff"/></symbol>
<symbol id="frm_view_icon" viewBox="0 0 24 24" fill="none"><rect x="1" y="4" width="7" height="7" rx="2" fill="#fff"/><rect x="10" y="4" width="13" height="3" rx="1.5" fill="#fff"/><rect opacity=".6" x="10" y="9" width="13" height="2" rx="1" fill="#fff"/><rect x="1" y="14" width="7" height="7" rx="2" fill="#fff"/><rect x="10" y="14" width="13" height="3" rx="1.5" fill="#fff"/><rect opacity=".6" x="10" y="19" width="13" height="2" rx="1" fill="#fff"/></symbol>
<symbol id="frm_page_icon" viewBox="0 0 24 24" fill="none"><rect x="4" y="2" width="16" height="20" rx="2" fill="#fff"/><path d="M20 2h-8l8 8V2Z" fill="#88BE6E"/><path d="m12 2 8 8h-8V2Z" fill="#D1E9C6"/></symbol>
<symbol id="frm_plus_folder_icon" viewBox="0 0 24 24" fill="none"><path d="M22 19a2 2 0 0 1-2 2H4a2 2 0 0 1-2-2V5a2 2 0 0 1 2-2h5l2 3h9a2 2 0 0 1 2 2v11ZM12 11v6M9 14h6" stroke="#fff" stroke-width="2" stroke-linecap="round" stroke-linejoin="round"/></symbol>
<symbol id="frm_folder_icon" viewBox="0 0 25 25" fill="none"><path d="M22.118 19.767a2 2 0 0 1-2 2h-16a2 2 0 0 1-2-2v-14a2 2 0 0 1 2-2h5l2 3h9a2 2 0 0 1 2 2v11Z" stroke="#fff" stroke-width="2" stroke-linecap="round" stroke-linejoin="round"/></symbol>
<symbol id="frm_dashed_list_icon" viewBox="0 0 24 24" fill="none"><path stroke="#282F36" stroke-opacity=".4" stroke-dasharray="4 4" d="M4.5 0v24M5 11.5h18"/></symbol>
<symbol id="frm_eye_icon" viewBox="0 0 24 24"><path fill="currentColor" fill-rule="evenodd" d="M6.3 15.6A17.9 17.9 0 0 1 3.2 12a18 18 0 0 1 3.1-3.6C7.9 7.1 9.8 6 12 6s4.1 1 5.7 2.4c1.5 1.3 2.6 2.8 3.1 3.6a18 18 0 0 1-3.1 3.6C16.1 16.9 14.2 18 12 18s-4.1-1-5.7-2.4ZM12 4a11 11 0 0 0-7 2.9c-1.8 1.5-3 3.2-3.5 4a1.9 1.9 0 0 0 0 2.1c.5.9 1.7 2.6 3.5 4 1.8 1.6 4.2 3 7 3a11 11 0 0 0 7-2.9c1.8-1.5 3-3.2 3.5-4a2 2 0 0 0 0-2.1A19.9 19.9 0 0 0 19 7c-1.8-1.6-4.2-3-7-3Zm-2 8a2 2 0 1 1 4 0 2 2 0 0 1-4 0Zm2-4a4 4 0 1 0 0 8 4 4 0 0 0 0-8Z" clip-rule="evenodd"/></symbol>
<symbol id="frm_eye_slash_icon" viewBox="0 0 24 24"><path fill="currentColor" fill-rule="evenodd" d="M19.7 5.7a1 1 0 0 0-1.4-1.4L14 8.6A4 4 0 0 0 8.6 14l-4.3 4.3a1 1 0 1 0 1.4 1.4l4.3-4.2a4 4 0 0 0 5.5-5.5l4.2-4.3Zm-7.2 4.4a2 2 0 0 0-2.4 2.4l2.4-2.4Zm-1 3.8 2.4-2.4a2 2 0 0 1-2.4 2.4Zm4.3-9A9.3 9.3 0 0 0 12 4a11 11 0 0 0-7 2.9c-1.8 1.5-3 3.2-3.5 4a1.9 1.9 0 0 0 0 2.1c.4.7 1.4 2 2.7 3.4L5.6 15a18.3 18.3 0 0 1-2.4-3 18 18 0 0 1 3.1-3.6A9 9 0 0 1 12 6c.8 0 1.5.1 2.2.4l1.6-1.6ZM12 18c-.8 0-1.5-.1-2.2-.4l-1.6 1.6c1.2.5 2.4.8 3.8.8a11 11 0 0 0 7-2.9c1.8-1.5 3-3.2 3.5-4a2 2 0 0 0 0-2.1 20.3 20.3 0 0 0-2.7-3.4L18.4 9a18.3 18.3 0 0 1 2.4 3 18 18 0 0 1-3.1 3.6A9 9 0 0 1 12 18Z" clip-rule="evenodd"/></symbol>
</defs>
</svg>
