<svg width="96" height="96" viewBox="0 0 96 96" fill="none" xmlns="http://www.w3.org/2000/svg">
<path d="M13.3358 70.7211L27.5251 69.3335C28.1173 69.2762 28.5715 68.7773 28.5715 68.1867V47.6244C28.5715 46.9421 27.9793 46.4088 27.3009 46.4776L13.1115 47.8652C12.5194 47.9226 12.0652 48.4214 12.0652 49.0121V69.5743C12.0652 70.2567 12.6573 70.7899 13.3358 70.7211Z" fill="#0C2231"/>
<path d="M33.4124 68.244L47.6018 66.8564C48.194 66.7991 48.6482 66.3002 48.6482 65.7096V35.0038C48.6482 34.3215 48.056 33.7882 47.3776 33.857L33.1882 35.2446C32.596 35.302 32.1418 35.8008 32.1418 36.3914V67.0972C32.1418 67.7796 32.734 68.3128 33.4124 68.244Z" fill="#0C2231"/>
<path d="M54.3227 67.1775L68.5121 65.7899C69.1043 65.7325 69.5585 65.2337 69.5585 64.6431V19.2295C69.5585 18.5471 68.9663 18.0138 68.2879 18.0826L54.0985 19.4703C53.5063 19.5276 53.0521 20.0265 53.0521 20.6171V66.025C53.0521 66.7073 53.6443 67.2406 54.3227 67.1718V67.1775Z" fill="#0C2231"/>
<path d="M9.133 67.5101L23.3223 66.1224C23.9145 66.0651 24.3687 65.5662 24.3687 64.9756V44.4134C24.3687 43.731 23.7765 43.1977 23.0981 43.2665L8.90877 44.6542C8.31659 44.7115 7.8624 45.2104 7.8624 45.801V66.3633C7.8624 67.0456 8.45458 67.5789 9.133 67.5101Z" fill="white" stroke="#0C2231" stroke-width="2" stroke-miterlimit="10" stroke-linecap="round"/>
<path d="M29.2097 65.0272L43.399 63.6396C43.9912 63.5823 44.4454 63.0834 44.4454 62.4928V31.787C44.4454 31.1047 43.8532 30.5714 43.1748 30.6402L28.9854 32.0278C28.3933 32.0852 27.9391 32.584 27.9391 33.1746V63.8804C27.9391 64.5628 28.5312 65.0961 29.2097 65.0272Z" fill="white" stroke="#0C2231" stroke-width="2" stroke-miterlimit="10" stroke-linecap="round"/>
<path d="M50.12 63.9607L64.3093 62.5731C64.9015 62.5157 65.3557 62.0169 65.3557 61.4263V16.0127C65.3557 15.3303 64.7635 14.797 64.0851 14.8658L49.8957 16.2535C49.3036 16.3108 48.8494 16.8097 48.8494 17.4003V62.8082C48.8494 63.4905 49.4415 64.0238 50.12 63.955V63.9607Z" fill="white" stroke="#0C2231" stroke-width="2" stroke-miterlimit="10" stroke-linecap="round"/>
<path d="M70.6694 64.2323V48.8774L67.8054 48.2194L63.3992 49.3161L58.7727 52.3871L56.5696 55.8968L55.9087 61.1613L57.4509 65.5484L70.6694 64.2323Z" fill="white"/>
<path d="M68.2872 72.5158C75.022 72.5158 80.4815 67.0707 80.4815 60.3539C80.4815 53.637 75.022 48.192 68.2872 48.192C61.5525 48.192 56.0929 53.637 56.0929 60.3539C56.0929 67.0707 61.5525 72.5158 68.2872 72.5158Z" stroke="#0C2231" stroke-width="2" stroke-miterlimit="10" stroke-linecap="round"/>
<path d="M88.4946 78.0971L80.9737 70.5962C80.2619 69.8863 79.108 69.8863 78.3962 70.5962C77.6845 71.306 77.6845 72.4569 78.3962 73.1668L85.9172 80.6677C86.6289 81.3776 87.7829 81.3776 88.4946 80.6677C89.2064 79.9579 89.2064 78.807 88.4946 78.0971Z" fill="#0C2231" stroke="#0C2231" stroke-width="2" stroke-miterlimit="10"/>
<path d="M76.9345 68.9321L78.4983 70.4918" stroke="#0C2231" stroke-width="2" stroke-miterlimit="10"/>
<path d="M56.5018 64.7118L66.6033 63.7256C67.9947 63.588 69.0526 62.424 69.0526 61.0306V48.1863L74.2155 49.5396V64.9813C74.2155 66.3747 73.1576 67.5387 71.7662 67.6763L58.9222 68.9321L56.5075 64.7176L56.5018 64.7118Z" fill="#0C2231"/>
</svg>
