<svg width="96" height="96" viewBox="0 0 96 96" fill="none" xmlns="http://www.w3.org/2000/svg">
<g clip-path="url(#clip0_278_658)">
<path d="M76.7012 36.4255C81.9338 29.5343 81.2887 20.237 75.2602 15.6596C69.2318 11.0821 60.1029 12.9577 54.8703 19.8489C49.6377 26.7402 50.2828 36.0374 56.3112 40.6149C62.3397 45.1924 71.4686 43.3167 76.7012 36.4255Z" fill="#0C2231" stroke="#0C2231" stroke-width="2" stroke-miterlimit="10" stroke-linecap="round"/>
<path d="M74.6271 34.2185C79.8597 27.3272 79.2146 18.03 73.1861 13.4525C67.1577 8.87503 58.0288 10.7507 52.7962 17.6419C47.5636 24.5331 48.2087 33.8304 54.2371 38.4079C60.2656 42.9853 69.3945 41.1097 74.6271 34.2185Z" fill="white" stroke="#0C2231" stroke-width="2" stroke-miterlimit="10" stroke-linecap="round"/>
<path d="M71.8481 32.1084C75.7474 26.9732 75.2656 20.0442 70.7719 16.632C66.2782 13.2199 59.4744 14.6168 55.5751 19.752C51.6758 24.8872 52.1577 31.8162 56.6514 35.2284C61.1451 38.6405 67.9489 37.2436 71.8481 32.1084Z" fill="white"/>
<path d="M71.8481 32.1084C75.7474 26.9732 75.2656 20.0442 70.7719 16.632C66.2782 13.2199 59.4744 14.6168 55.5751 19.752C51.6758 24.8872 52.1577 31.8162 56.6514 35.2284C61.1451 38.6405 67.9489 37.2436 71.8481 32.1084Z" stroke="#0C2231" stroke-width="2" stroke-miterlimit="10" stroke-linecap="square"/>
<path d="M23.4301 40.3283L15.2382 47.5583C14.3517 48.3442 13.8739 49.4947 13.9556 50.6703L14.7226 62.3578C14.7981 63.4643 15.345 64.4828 16.2252 65.1492L25.6556 72.3101C26.5861 73.0142 27.7806 73.2594 28.9123 72.9702L39.5687 70.2479C40.7506 69.9462 41.7125 69.0974 42.1715 67.9658L46.3523 57.5294C46.7735 56.4795 46.7044 55.2913 46.17 54.2916L40.4803 43.7547C39.9459 42.7676 39.0091 42.0635 37.9152 41.8309L26.7559 39.4544C25.5739 39.2029 24.3417 39.5236 23.4301 40.3283Z" fill="#0C2231" stroke="#0C2231" stroke-width="3" stroke-miterlimit="10" stroke-linecap="round"/>
<path d="M25.6494 37.3734L17.4575 44.6034C16.571 45.3893 16.0932 46.5398 16.1749 47.7155L16.9419 59.4029C17.0174 60.5094 17.5643 61.5279 18.4445 62.1943L27.8749 69.3552C28.8054 70.0593 29.9999 70.3045 31.1316 70.0153L41.788 67.293C42.9699 66.9913 43.9318 66.1425 44.3908 65.0109L48.5716 54.5745C48.9928 53.5246 48.9237 52.3364 48.3893 51.3367L42.6996 40.7998C42.1652 39.8127 41.2285 39.1086 40.1345 38.876L28.9752 36.4995C27.7932 36.248 26.561 36.5687 25.6494 37.3734Z" fill="white" stroke="#0C2231" stroke-width="2" stroke-miterlimit="10" stroke-linecap="round"/>
<path d="M27.2462 41.3153L21.1605 46.6844C20.5003 47.2691 20.1483 48.1178 20.2049 48.998L20.7707 57.6803C20.8273 58.5039 21.2296 59.2583 21.8898 59.755L28.8997 65.0738C29.5913 65.5956 30.4777 65.7779 31.3202 65.5642L39.2418 63.5398C40.1219 63.3134 40.8387 62.6847 41.1719 61.8486L44.2776 54.0967C44.592 53.3172 44.5417 52.4307 44.1393 51.6951L39.9145 43.8678C39.5184 43.1323 38.8205 42.6105 38.0095 42.4407L29.717 40.6741C28.8369 40.4855 27.919 40.7244 27.2462 41.3216V41.3153Z" fill="white" stroke="#0C2231" stroke-width="2" stroke-miterlimit="10" stroke-linecap="round"/>
<path d="M72.4142 76.1799C76.6686 69.5861 77.9367 62.8337 75.2466 61.0981C72.5566 59.3625 66.927 63.3008 62.6727 69.8947C58.4184 76.4885 57.1503 83.2409 59.8403 84.9765C62.5304 86.7121 68.1599 82.7737 72.4142 76.1799Z" fill="#0C2231" stroke="#0C2231" stroke-width="2" stroke-miterlimit="10" stroke-linecap="round"/>
<path d="M69.6173 74.3786C73.8717 67.7847 75.1398 61.0324 72.4497 59.2968C69.7597 57.5612 64.1301 61.4995 59.8758 68.0933C55.6215 74.6872 54.3534 81.4395 57.0434 83.1751C59.7335 84.9107 65.363 80.9724 69.6173 74.3786Z" fill="white" stroke="#0C2231" stroke-width="2" stroke-miterlimit="10" stroke-linecap="round"/>
<path d="M78.0512 54.0213C78.0512 50.1862 77.4036 49.7147 73.7446 49.7147C77.4288 49.7147 78.0512 49.174 78.0512 45.4081C78.0512 49.2118 78.5479 49.7147 82.3577 49.7147C78.5604 49.7147 78.0512 50.2302 78.0512 54.0213Z" fill="#0C2231" stroke="#0C2231" stroke-width="2" stroke-miterlimit="10" stroke-linecap="round"/>
<path d="M39.3109 19.902C39.3109 16.0669 38.6634 15.5954 35.0044 15.5954C38.6885 15.5954 39.3109 15.0547 39.3109 11.2888C39.3109 15.0924 39.8076 15.5954 43.6175 15.5954C39.8202 15.5954 39.3109 16.1109 39.3109 19.902Z" fill="#0C2231" stroke="#0C2231" stroke-width="2" stroke-miterlimit="10" stroke-linecap="round"/>
</g>
<defs>
<clipPath id="clip0_278_658">
<rect width="69.3577" height="76.33" fill="white" transform="translate(13 10)"/>
</clipPath>
</defs>
</svg>
