<svg width="96" height="96" viewBox="0 0 96 96" fill="none" xmlns="http://www.w3.org/2000/svg">
<g clip-path="url(#clip0_278_662)">
<path d="M78.6355 74.0707L23.0312 83.8802V34.4372L50.8333 18.0358L78.6355 24.6239V74.0707Z" fill="#0C2231"/>
<path d="M23.0311 85C22.7701 85 22.5164 84.9104 22.3113 84.7387C22.0577 84.526 21.9122 84.2124 21.9122 83.8802V34.4372C21.9122 34.0415 22.1211 33.672 22.4642 33.4741L50.2664 17.069C50.5163 16.9234 50.8109 16.8786 51.0907 16.9458L78.8928 23.534C79.3963 23.6535 79.7544 24.1051 79.7544 24.6239V74.0707C79.7544 74.6157 79.3665 75.0786 78.8294 75.1719L23.2251 84.9851C23.1617 84.9963 23.0946 85.0038 23.0311 85.0038V85ZM24.1501 35.0755V82.5477L77.5165 73.1301V25.5086L51.0123 19.2302L24.1501 35.0755Z" fill="#0C2231"/>
<path d="M73.7233 69.1547L18.119 78.9679V29.5211L45.9211 13.1198L73.7233 19.7079V69.1547Z" fill="white"/>
<path d="M18.1189 80.0881C17.8579 80.0881 17.6042 79.9986 17.3991 79.8269C17.1455 79.6141 17 79.3005 17 78.9683V29.5216C17 29.1259 17.2089 28.7564 17.552 28.5585L45.3542 12.1571C45.6041 12.0116 45.8987 11.9668 46.1785 12.034L73.9806 18.6221C74.4841 18.7416 74.8422 19.1932 74.8422 19.7121V69.1551C74.8422 69.7001 74.4543 70.1629 73.9172 70.2563L18.3129 80.0695C18.2495 80.0807 18.1824 80.0881 18.1189 80.0881ZM19.2379 30.1598V77.632L72.6043 68.2145V20.593L46.1001 14.3146L19.2379 30.1598Z" fill="#0C2231"/>
<path d="M58.9569 33.6944C55.3427 30.7157 49.4831 31.7497 45.8652 36.0049C42.2435 33.142 36.466 34.1946 32.8891 38.4088C29.3122 42.6192 29.2786 48.4049 32.7809 51.4134L32.8928 51.5105L44.8096 61.3349C45.3989 61.8201 46.268 61.7417 46.764 61.1594L58.9643 46.7998C62.5785 42.5446 62.5785 36.6805 58.9643 33.6981L58.9569 33.6944Z" fill="white"/>
<path d="M45.6861 62.7645C45.1229 62.7645 44.556 62.5778 44.0898 62.1933L32.0611 52.2794C32.0275 52.2532 31.9939 52.2234 31.9641 52.1898C28.0925 48.7744 28.1112 42.2944 32.0312 37.6809C35.6976 33.3659 41.6057 32.0781 45.6936 34.5342C49.7181 30.4619 55.8089 29.6519 59.6655 32.8321C61.4335 34.2916 62.53 36.4341 62.7426 38.8641C63.0075 41.8577 61.937 45.0118 59.8035 47.5239L47.6033 61.8835C47.1072 62.4658 46.3985 62.7682 45.6824 62.7682L45.6861 62.7645ZM33.5605 50.6146L45.5108 60.4651C45.6265 60.5622 45.8018 60.5472 45.8987 60.4315L58.099 46.0719C59.8446 44.0152 60.7248 41.4621 60.5122 39.0619C60.3481 37.2329 59.5424 35.6353 58.2407 34.5603C55.1002 31.9736 49.9307 32.9441 46.7156 36.7328C46.3239 37.1919 45.6376 37.2628 45.1677 36.8895C42.0272 34.4036 36.9024 35.4114 33.7395 39.1366C30.5878 42.8431 30.4833 47.9718 33.5045 50.5661C33.5232 50.581 33.5418 50.5997 33.5605 50.6183V50.6146Z" fill="#0C2231"/>
</g>
<defs>
<clipPath id="clip0_278_662">
<rect width="62.7544" height="73" fill="white" transform="translate(17 12)"/>
</clipPath>
</defs>
</svg>
