<svg width="50" height="49" viewBox="0 0 50 49" fill="none" xmlns="http://www.w3.org/2000/svg">
<path d="M14.4167 22.3363L16.9553 10.519C16.9553 9.82083 16.3842 9.35119 15.686 9.47812L11.6115 10.2016C11.0403 10.3032 10.5453 10.7601 10.393 11.3313L4.79528 22.4886C4.50333 23.5676 4.35101 24.6592 4.35101 25.7381V47.9385C4.35101 48.6366 4.92221 49.1062 5.62033 48.9793L21.7153 46.136C22.4134 46.0091 22.9846 45.3491 22.9846 44.6382V22.0951C22.9846 21.397 22.4134 20.9274 21.7153 21.0543L14.4167 22.3363Z" fill="#0C2231"/>
<path d="M11.0657 18.9853L13.6043 7.16795C13.6043 6.46982 13.0331 6.00017 12.335 6.12711L8.2605 6.85062C7.68931 6.95216 7.19428 7.40912 7.04196 7.98031L1.44426 19.1376C1.15232 20.2165 1 21.3082 1 22.3871V44.5748C1 45.2729 1.57119 45.7425 2.26932 45.6156L18.3643 42.7723C19.0624 42.6454 19.6336 41.9854 19.6336 41.2745V18.7441C19.6336 18.046 19.0624 17.5764 18.3643 17.7033L11.0657 18.9853Z" fill="white" stroke="#0C2231" stroke-width="2" stroke-miterlimit="10"/>
<path d="M40.4167 17.2299L42.9553 5.41258C42.9553 4.71445 42.3842 4.2448 41.686 4.37173L37.6115 5.09525C37.0403 5.19679 36.5453 5.65375 36.393 6.22494L30.7953 17.3822C30.5033 18.4612 30.351 19.5528 30.351 20.6317V42.8321C30.351 43.5302 30.9222 43.9999 31.6203 43.8729L47.7153 41.0297C48.4134 40.9027 48.9846 40.2427 48.9846 39.5319V16.9888C48.9846 16.2906 48.4134 15.821 47.7153 15.9479L40.4167 17.2299Z" fill="#0C2231"/>
<path d="M37.0657 13.8789L39.6043 2.06156C39.6043 1.36344 39.0331 0.89379 38.335 1.02072L34.2605 1.74423C33.6893 1.84578 33.1943 2.30273 33.042 2.87393L27.4443 14.0312C27.1523 15.1102 27 16.2018 27 17.2807V39.4684C27 40.1665 27.5712 40.6362 28.2693 40.5092L44.3643 37.6659C45.0624 37.539 45.6336 36.879 45.6336 36.1681V13.6377C45.6336 12.9396 45.0624 12.47 44.3643 12.5969L37.0657 13.8789Z" fill="white" stroke="#0C2231" stroke-width="2" stroke-miterlimit="10"/>
</svg>
