<svg width="96" height="96" viewBox="0 0 96 96" fill="none" xmlns="http://www.w3.org/2000/svg">
<g clip-path="url(#clip0_278_663)">
<path d="M32.5425 87.6539L73.7617 83.6124C75.4812 83.4436 76.7989 81.9973 76.7989 80.2698V20.3855C76.7989 18.4009 75.0874 16.8421 73.1109 17.043L31.8836 21.0845C30.1642 21.2533 28.8464 22.6996 28.8464 24.4271V84.3034C28.8464 86.288 30.5579 87.8468 32.5345 87.6459L32.5425 87.6539Z" fill="#0C2231"/>
<path d="M24.8933 80.8323L66.1125 76.7907C67.832 76.622 69.1497 75.1757 69.1497 73.4482V13.5719C69.1497 11.5873 67.4383 10.0285 65.4617 10.2294L24.2425 14.2629C22.523 14.4316 21.2053 15.8779 21.2053 17.6054V77.4817C21.2053 79.4664 22.9167 81.0251 24.8933 80.8243V80.8323Z" fill="white" stroke="#0C2231" stroke-width="1.96875" stroke-miterlimit="10" stroke-linecap="round"/>
<path d="M61.5004 9.98828V31.8674L57.957 30.0917L54.1967 32.5584V10.2052" fill="#0C2231"/>
</g>
<defs>
<clipPath id="clip0_278_663">
<rect width="56.7989" height="78.67" fill="white" transform="translate(20 9)"/>
</clipPath>
</defs>
</svg>
