<svg width="96" height="96" viewBox="0 0 96 96" fill="none" xmlns="http://www.w3.org/2000/svg">
<g clip-path="url(#clip0_278_660)">
<path d="M24.6765 34.752C11.5756 40.6408 5.72651 56.0399 11.6153 69.1452L59.0653 47.8176C53.1765 34.7123 37.7774 28.8676 24.6765 34.7564V34.752ZM41.1607 49.0924C38.148 47.2265 34.2927 46.8428 30.8168 48.4087C27.3408 49.9702 25.0691 53.1109 24.4604 56.6001L15.6162 60.5745C14.7428 52.2816 19.198 43.9844 27.2129 40.3849C35.2234 36.7855 44.3897 38.9557 50.0094 45.118L41.1652 49.0924H41.1607Z" fill="#0C2231"/>
<path d="M74.385 31.0025L78.0639 24.1962C79.4093 21.7128 91.4383 28.2147 90.0929 30.6982L86.4141 37.5045" fill="#0C2231"/>
<path d="M74.2924 31.1746L57.0142 63.1373L57.8346 76L69.0476 69.6392L86.3258 37.6765" fill="#0C2231"/>
<path d="M57.6626 73.3004L57.5347 71.311C58.1214 70.2259 62.506 72.599 61.9193 73.6797" fill="#0C2231"/>
<path d="M69.0476 69.6392C70.2651 67.3851 58.2361 60.8788 57.0186 63.1373L69.0476 69.6392Z" fill="#0C2231"/>
<path d="M86.4185 37.5045C87.6359 35.2504 75.6069 28.7441 74.3894 31.0026L86.4185 37.5045Z" fill="#0C2231"/>
<path d="M86.3258 37.6765C87.6712 35.1931 75.6378 28.6867 74.2968 31.1746L86.3258 37.6765Z" fill="#0C2231"/>
<path d="M22.0166 32.6523C8.91132 38.5411 3.06663 53.9402 8.95543 67.0411L56.4055 45.7135C50.5167 32.6082 35.1176 26.7635 22.0166 32.6523ZM38.5009 46.9927C35.4881 45.1268 31.6328 44.743 28.1569 46.309C24.6809 47.8705 22.4092 51.0112 21.8005 54.5004L12.9563 58.4748C12.0829 50.1819 16.5381 41.8847 24.553 38.2852C32.5636 34.6858 41.7298 36.856 47.3495 43.0183L38.5053 46.9927H38.5009Z" fill="white" stroke="#0C2231" stroke-width="2" stroke-miterlimit="10" stroke-linecap="round"/>
<path d="M71.8531 27.0238L75.5319 20.2175C76.8773 17.734 88.9063 24.236 87.5609 26.7194L83.8821 33.5257" fill="white"/>
<path d="M71.8531 27.0238L75.5319 20.2175C76.8773 17.734 88.9063 24.236 87.5609 26.7194L83.8821 33.5257" stroke="#0C2231" stroke-width="2" stroke-miterlimit="10" stroke-linecap="round"/>
<path d="M71.7604 27.1958L54.4822 59.1585L55.3027 72.0212L66.5112 65.6604L83.7894 33.6977" fill="white"/>
<path d="M71.7604 27.1958L54.4822 59.1585L55.3027 72.0212L66.5112 65.6604L83.7894 33.6977" stroke="#0C2231" stroke-width="2" stroke-miterlimit="10" stroke-linecap="round"/>
<path d="M55.1306 69.3216L55.0027 67.3322C55.5894 66.2471 59.974 68.6203 59.3873 69.701" stroke="#0C2231" stroke-width="2" stroke-miterlimit="10" stroke-linecap="round"/>
<path d="M66.5112 65.6604C67.7287 63.4064 55.6997 56.9 54.4822 59.1585L66.5112 65.6604Z" fill="white"/>
<path d="M66.5112 65.6604C67.7287 63.4064 55.6997 56.9 54.4822 59.1585" stroke="#0C2231" stroke-width="2" stroke-miterlimit="10" stroke-linecap="round"/>
<path d="M83.8821 33.5257C85.0995 31.2717 73.0705 24.7653 71.8531 27.0238L83.8821 33.5257Z" fill="white"/>
<path d="M83.8821 33.5257C85.0995 31.2717 73.0705 24.7653 71.8531 27.0238" stroke="#0C2231" stroke-width="2" stroke-miterlimit="10" stroke-linecap="round"/>
<path d="M83.7895 33.6978C85.1348 31.2143 73.1014 24.708 71.7604 27.1958L83.7895 33.6978Z" fill="white"/>
<path d="M83.7895 33.6978C85.1348 31.2143 73.1014 24.708 71.7604 27.1958" stroke="#0C2231" stroke-width="2" stroke-miterlimit="10" stroke-linecap="round"/>
</g>
<defs>
<clipPath id="clip0_278_660">
<rect width="84.1988" height="57" fill="white" transform="translate(6 19)"/>
</clipPath>
</defs>
</svg>
