<svg width="96" height="96" viewBox="0 0 96 96" fill="none" xmlns="http://www.w3.org/2000/svg">
<g clip-path="url(#clip0_278_661)">
<path d="M80.0907 65.8767V74.7634C80.0907 77.3554 78.0275 79.8249 75.4786 80.2828L70.8629 75.7403V67.5279L80.0907 65.8767Z" fill="#0C2231"/>
<path d="M44.2751 49.5851L53.7793 58.9404C53.2618 59.9355 52.9675 61.035 52.9675 62.1562C52.9675 64.4058 54.1587 66.1579 55.9347 66.9042L55.5093 66.9799V77.1572L58.9941 74.3271L62.4789 75.9062V67.4954L70.8594 75.7439V76.4181C70.8594 79.0102 72.9262 80.7407 75.4751 80.2828L33.3031 87.8464C29.6198 88.5061 26.6349 86.0041 26.6349 82.262V32.2264L36.2491 41.6899L44.2751 49.5851Z" fill="#0C2231"/>
<path d="M70.8594 75.744L75.4751 80.2864C72.9262 80.7407 70.8594 79.0138 70.8594 76.4217V75.7476V75.744Z" fill="#0C2231"/>
<path d="M44.2751 49.5851L36.2491 41.6899L26.6349 32.2264L61.6352 25.9535L70.8594 29.3856V75.7439L62.4789 67.4954V65.7289L62.057 65.8046C63.8331 64.4202 65.0207 62.2427 65.0207 59.9931C65.0207 56.6079 62.3229 54.3475 58.9941 54.9423C56.7678 55.3425 54.818 56.9215 53.7793 58.9368L44.2751 49.5815V49.5851Z" fill="#0C2231"/>
<path d="M70.8594 17.1029V29.3856L61.6352 25.9535V18.7613C61.6352 17.4634 62.1527 16.2016 62.9858 15.203C63.8189 14.2044 64.9746 13.469 66.2473 13.2454C68.7962 12.7876 70.8594 14.5181 70.8594 17.1065V17.1029Z" fill="#0C2231"/>
<path d="M26.6951 20.3331L66.2473 13.2418C64.9746 13.4689 63.8189 14.2008 62.9858 15.1994C62.1492 16.198 61.6352 17.4598 61.6352 18.7577V25.9499L26.6951 20.3331Z" fill="#0C2231"/>
<path d="M65.0242 59.9931C65.0242 62.2427 63.8366 64.4202 62.0606 65.8046L60.9616 65.9993L53.7829 58.9368C54.8216 56.9216 56.7714 55.3425 58.9977 54.9423C62.3265 54.3475 65.0242 56.6043 65.0242 59.9931Z" fill="#0C2231"/>
<path d="M62.4789 67.4954V75.9061L58.9941 74.3271L55.5093 77.1571V66.9799L55.9347 66.9041C56.8316 67.2827 57.8774 67.4053 58.9941 67.207C59.8095 67.0592 60.5823 66.7563 61.2913 66.3345L62.4789 67.499V67.4954Z" fill="#0C2231"/>
<path d="M62.4789 65.7289V67.4954L61.2913 66.3309C61.5572 66.1723 61.816 65.9957 62.057 65.8046L62.4789 65.7289Z" fill="#0C2231"/>
<path d="M60.9616 65.9992L62.0606 65.8046C61.816 65.9956 61.5607 66.1687 61.2948 66.3309L60.9616 65.9992Z" fill="#0C2231"/>
<path d="M61.6352 25.9535L26.6349 32.2264L22.0795 33.0448V25.8526C22.0795 23.2605 24.1462 20.791 26.6916 20.3331L61.6316 25.9535H61.6352Z" fill="#0C2231"/>
<path d="M60.9616 65.9993L61.2948 66.3309C60.5858 66.7563 59.813 67.0592 58.9976 67.2034C57.881 67.4017 56.8352 67.2791 55.9383 66.9005L60.9616 65.9993Z" fill="#0C2231"/>
<path d="M60.9616 65.9993L55.9383 66.9006C54.1622 66.1543 52.9711 64.4022 52.9711 62.1526C52.9711 61.0314 53.2653 59.9318 53.7829 58.9368L60.9616 65.9993Z" fill="#0C2231"/>
<path d="M75.4751 80.2864L33.3031 87.85C29.6198 88.5097 26.6349 86.0077 26.6349 82.2656V32.2264" fill="#0C2231"/>
<path d="M32.1262 89C30.5344 89 29.0668 88.4773 27.8934 87.4786C26.4186 86.2205 25.6104 84.371 25.6104 82.2656V32.2265C25.6104 31.6496 26.0712 31.181 26.6384 31.181C27.2056 31.181 27.6665 31.6496 27.6665 32.2265V82.262C27.6665 83.7401 28.216 85.0235 29.2192 85.878C30.2473 86.754 31.6334 87.0893 33.1329 86.8189L75.3049 79.2553C75.865 79.1544 76.3968 79.5329 76.4925 80.1025C76.5917 80.6722 76.2195 81.2129 75.6594 81.3103L33.4875 88.8738C33.0266 88.9567 32.5728 88.9964 32.1297 88.9964L32.1262 89Z" fill="#0C2231"/>
<path d="M26.6916 21.3786C26.2024 21.3786 25.7699 21.0217 25.6812 20.517C25.582 19.9474 25.9542 19.4066 26.5143 19.3093L66.07 12.2144C66.6301 12.1135 67.1619 12.492 67.2576 13.0616C67.3569 13.6312 66.9846 14.172 66.4245 14.2693L26.8724 21.3606C26.8121 21.3714 26.7518 21.375 26.6916 21.375V21.3786Z" fill="#0C2231"/>
<path d="M70.8594 68.5734C70.2922 68.5734 69.8313 68.1047 69.8313 67.5279V29.3856C69.8313 28.8088 70.2922 28.3401 70.8594 28.3401C71.4266 28.3401 71.8875 28.8088 71.8875 29.3856V67.5315C71.8875 68.1083 71.4266 68.577 70.8594 68.577V68.5734Z" fill="#0C2231"/>
<path d="M75.4751 80.2864C78.024 79.8321 80.0872 77.359 80.0872 74.7669V65.8803L70.8594 67.5315V76.4181C70.8594 79.0102 72.9262 80.7406 75.4751 80.2828V80.2864Z" fill="#0C2231"/>
<path d="M74.6597 81.404C73.4828 81.404 72.3944 81.0146 71.5259 80.272C70.434 79.3419 69.8349 77.9719 69.8349 76.4181V67.5315C69.8349 67.0231 70.1929 66.5905 70.6822 66.504L79.9099 64.8528C80.2077 64.7988 80.5161 64.8817 80.7466 65.08C80.9805 65.2783 81.1117 65.5703 81.1117 65.8803V74.767C81.1117 77.889 78.7117 80.7659 75.6488 81.3139C75.312 81.3752 74.9788 81.404 74.6562 81.404H74.6597ZM71.8839 68.4075V76.4181C71.8839 77.3446 72.2243 78.145 72.8447 78.6713C73.4828 79.2157 74.3548 79.4248 75.2978 79.2553C77.3362 78.8912 79.0627 76.8327 79.0627 74.7633V67.1205L71.8875 68.4039L71.8839 68.4075Z" fill="#0C2231"/>
<path d="M70.8594 29.3856V17.103C70.8594 14.5145 68.7962 12.7804 66.2473 13.2419C64.9746 13.469 63.8189 14.2008 62.9858 15.1994C62.1492 16.1981 61.6352 17.4599 61.6352 18.7577V25.9499" fill="#0C2231"/>
<path d="M70.8594 30.4275C70.2922 30.4275 69.8313 29.9588 69.8313 29.382V17.103C69.8313 16.1764 69.491 15.3761 68.8706 14.8461C68.2325 14.3018 67.364 14.0963 66.4245 14.2657C65.439 14.4424 64.4712 15.0264 63.7693 15.87C63.0532 16.7244 62.6597 17.7483 62.6597 18.7541V25.9463C62.6597 26.5231 62.1988 26.9918 61.6316 26.9918C61.0644 26.9918 60.6036 26.5231 60.6036 25.9463V18.7613C60.6036 17.2616 61.1708 15.7582 62.1988 14.5253C63.2234 13.2959 64.5953 12.474 66.0665 12.2144C67.6121 11.9368 69.0762 12.3045 70.1894 13.2491C71.2813 14.1792 71.8839 15.5491 71.8839 17.103V29.3856C71.8839 29.9624 71.4231 30.4311 70.8559 30.4311L70.8594 30.4275Z" fill="#0C2231"/>
<path d="M26.6951 20.3331C24.1498 20.7874 22.083 23.2605 22.083 25.8526V33.0448L26.6384 32.2264L61.6387 25.9535" fill="#0C2231"/>
<path d="M22.083 34.0903C21.842 34.0903 21.608 34.0038 21.4236 33.8451C21.1897 33.6469 21.0585 33.3549 21.0585 33.0448V25.8526C21.0585 22.7305 23.4585 19.8536 26.5214 19.3057C27.0815 19.2047 27.6133 19.5869 27.709 20.1529C27.8083 20.7225 27.4361 21.2633 26.8759 21.3606C24.834 21.7247 23.1111 23.7832 23.1111 25.8526V31.801L61.4615 24.9261C62.0216 24.8251 62.5533 25.2037 62.6491 25.7733C62.7483 26.3393 62.3761 26.8836 61.816 26.981L22.2603 34.0723C22.2 34.0831 22.1397 34.0867 22.083 34.0867V34.0903Z" fill="#0C2231"/>
<path d="M55.5129 66.9763V77.1571L58.9976 74.3271L62.4789 75.9062V67.4954V65.7289" fill="#0C2231"/>
<path d="M55.5129 78.199C55.3604 78.199 55.208 78.1666 55.0662 78.0945C54.7117 77.9214 54.4848 77.5537 54.4848 77.1535V66.9763C54.4848 66.3995 54.9456 65.9308 55.5129 65.9308C56.0801 65.9308 56.5409 66.3995 56.5409 66.9763V74.9869L58.356 73.5124C58.6538 73.2672 59.065 73.2167 59.416 73.3754L61.4544 74.2983V65.7289C61.4544 65.1521 61.9152 64.6834 62.4824 64.6834C63.0496 64.6834 63.5105 65.1521 63.5105 65.7289V75.9062C63.5105 76.2595 63.3332 76.5911 63.0425 76.7822C62.7518 76.9733 62.3832 77.0021 62.0641 76.8615L59.1501 75.5421L56.1545 77.9755C55.9702 78.1269 55.7433 78.2026 55.5129 78.2026V78.199Z" fill="#0C2231"/>
<path d="M53.7829 58.9405C53.2653 59.9355 52.9711 61.0351 52.9711 62.1563C52.9711 64.4059 54.1622 66.158 55.9383 66.9042C56.8352 67.2828 57.881 67.4053 58.9977 67.207C59.813 67.0592 60.5858 66.7564 61.2949 66.3346C61.5607 66.176 61.8195 65.9993 62.0606 65.8083C63.8367 64.4239 65.0242 62.2464 65.0242 59.9968C65.0242 56.6116 62.3265 54.3512 58.9977 54.946C56.7714 55.3462 54.8216 56.9252 53.7829 58.9405Z" fill="#0C2231"/>
<path d="M57.9519 68.3427C57.1046 68.3427 56.2892 68.184 55.5412 67.8668C53.322 66.9367 51.943 64.7483 51.943 62.1563C51.943 60.9053 52.2656 59.6254 52.8718 58.4538C54.0878 56.096 56.3672 54.3584 58.8168 53.9149C60.7524 53.5688 62.5711 54.0267 63.9501 55.202C65.3043 56.3556 66.0488 58.0572 66.0488 59.9896C66.0488 62.5023 64.7903 64.9863 62.6845 66.6302C62.4222 66.8357 62.1279 67.0376 61.816 67.2251C60.9793 67.7262 60.0931 68.0615 59.1749 68.2273C58.7637 68.2994 58.356 68.3354 57.9519 68.3354V68.3427ZM60.0505 55.8941C59.7634 55.8941 59.4727 55.9194 59.1749 55.9735C57.3386 56.3051 55.6192 57.6246 54.6904 59.4236C54.2366 60.296 53.9991 61.2406 53.9991 62.1526C53.9991 63.9083 54.8712 65.3216 56.3318 65.9344C57.0762 66.2481 57.9377 66.331 58.8239 66.1724C59.494 66.0534 60.1533 65.801 60.7773 65.4261C61.0148 65.2819 61.2381 65.1305 61.4366 64.9755C63.0213 63.7389 64.0033 61.8318 64.0033 59.9896C64.0033 58.6845 63.5176 57.5525 62.6384 56.799C61.9365 56.2006 61.0431 55.8869 60.0576 55.8869L60.0505 55.8941Z" fill="#0C2231"/>
<path d="M33.5229 42.1766L36.2526 41.6899L62.4789 36.9852" fill="#0C2231"/>
<path d="M33.5229 43.2221C33.0337 43.2221 32.6012 42.8652 32.5126 42.3569C32.4133 41.7873 32.7891 41.2465 33.3457 41.1491L36.0718 40.6624L62.2981 35.9578C62.8582 35.8568 63.39 36.2354 63.4857 36.805C63.5849 37.371 63.2127 37.9153 62.6526 38.0127L33.6966 43.2041C33.6363 43.2149 33.5761 43.2185 33.5194 43.2185L33.5229 43.2221Z" fill="#0C2231"/>
<path d="M33.5229 51.5139L44.275 49.5851L62.4789 46.3225" fill="#0C2231"/>
<path d="M33.5229 52.5558C33.0337 52.5558 32.6012 52.1989 32.5126 51.6941C32.4133 51.1245 32.7855 50.5838 33.3456 50.4864L62.3016 45.295C62.8617 45.1941 63.3935 45.5726 63.4892 46.1422C63.5885 46.7119 63.2163 47.2526 62.6561 47.35L33.7001 52.5413C33.6399 52.5522 33.5796 52.5558 33.5194 52.5558H33.5229Z" fill="#0C2231"/>
<path d="M33.5229 62.3617C33.0337 62.3617 32.6012 62.0048 32.5126 61.5001C32.4133 60.9305 32.7855 60.3897 33.3456 60.2924L47.8236 57.6967C48.3838 57.5958 48.9155 57.9743 49.0112 58.5439C49.1105 59.1135 48.7383 59.6543 48.1781 59.7516L33.7002 62.3473C33.6399 62.3581 33.5796 62.3617 33.5194 62.3617H33.5229Z" fill="#0C2231"/>
<path d="M75.0358 61.756V70.6427C75.0358 73.2348 72.9725 75.7043 70.4236 76.1621L65.808 71.6197V63.4072L75.0358 61.756Z" fill="white"/>
<path d="M39.2201 45.4609L48.7244 54.8162C48.2068 55.8112 47.9126 56.9107 47.9126 58.0319C47.9126 60.2815 49.1037 62.0336 50.8798 62.7799L50.4544 62.8556V73.0329L53.9392 70.2028L57.4239 71.7819V63.3711L65.8044 71.6197V72.2938C65.8044 74.8859 67.8712 76.6164 70.4201 76.1585L28.2482 83.7221C24.5648 84.3818 21.5799 81.8799 21.5799 78.1377V28.1058L31.1941 37.5692L39.2201 45.4645V45.4609Z" fill="white"/>
<path d="M65.8044 71.6197L70.4201 76.1622C67.8712 76.6164 65.8044 74.8895 65.8044 72.2975V71.6233V71.6197Z" fill="white"/>
<path d="M39.2201 45.4609L31.1941 37.5657L21.5799 28.1058L56.5802 21.8329L65.8044 25.265V71.6197L57.4239 63.3712V61.6047L57.0021 61.6804C58.7781 60.296 59.9657 58.1185 59.9657 55.8689C59.9657 52.4837 57.2679 50.2233 53.9391 50.8181C51.7128 51.2183 49.7631 52.7973 48.7244 54.8126L39.2201 45.4573V45.4609Z" fill="white"/>
<path d="M65.8044 12.9787V25.2613L56.5802 21.8292V14.637C56.5802 13.3392 57.0978 12.0774 57.9309 11.0788C58.764 10.0801 59.9196 9.34469 61.1923 9.12118C63.7412 8.66332 65.8044 10.3938 65.8044 12.9823V12.9787Z" fill="white"/>
<path d="M21.6402 16.2088L61.1923 9.11755C59.9197 9.34468 58.764 10.0765 57.9309 11.0751C57.0942 12.0738 56.5802 13.3356 56.5802 14.6334V21.8256L21.6402 16.2088Z" fill="white"/>
<path d="M59.9693 55.8689C59.9693 58.1185 58.7817 60.296 57.0056 61.6803L55.9067 61.875L48.7279 54.8126C49.7666 52.7973 51.7164 51.2182 53.9427 50.8181C57.2715 50.2232 59.9693 52.48 59.9693 55.8689Z" fill="white"/>
<path d="M57.4239 63.3711V71.7819L53.9391 70.2028L50.4544 73.0329V62.8556L50.8798 62.7799C51.7767 63.1584 52.8225 63.281 53.9391 63.0827C54.7545 62.9349 55.5273 62.6321 56.2363 62.2103L57.4239 63.3747V63.3711Z" fill="white"/>
<path d="M57.4239 61.6046V63.3711L56.2363 62.2067C56.5022 62.048 56.761 61.8714 57.0021 61.6803L57.4239 61.6046Z" fill="white"/>
<path d="M55.9066 61.875L57.0056 61.6803C56.761 61.8714 56.5058 62.0444 56.2399 62.2066L55.9066 61.875Z" fill="white"/>
<path d="M56.5802 21.8293L21.5799 28.1058L17.0245 28.9241V21.7319C17.0245 19.1398 19.0913 16.6703 21.6366 16.2125L56.5767 21.8329L56.5802 21.8293Z" fill="white"/>
<path d="M55.9067 61.875L56.2399 62.2067C55.5309 62.6321 54.7581 62.9349 53.9427 63.0791C52.826 63.2774 51.7802 63.1548 50.8833 62.7763L55.9067 61.875Z" fill="white"/>
<path d="M55.9067 61.875L50.8833 62.7763C49.1072 62.03 47.9161 60.2779 47.9161 58.0283C47.9161 56.9071 48.2103 55.8076 48.7279 54.8126L55.9067 61.875Z" fill="white"/>
<path fill-rule="evenodd" clip-rule="evenodd" d="M21.5799 27.0621C22.1467 27.0621 22.6062 27.5293 22.6062 28.1058V78.1413C22.6062 79.7194 23.2292 80.9777 24.1853 81.7786C25.1428 82.5807 26.5008 82.9789 28.0701 82.6978L70.2418 75.1343C70.8 75.0342 71.3323 75.4132 71.4308 75.9808C71.5292 76.5485 71.1565 77.0898 70.5983 77.1899L28.4264 84.7535L28.4262 84.7535C26.3122 85.1322 24.3361 84.6093 22.8803 83.3898C21.423 82.1691 20.5536 80.3054 20.5536 78.1413V28.1058C20.5536 27.5293 21.0131 27.0621 21.5799 27.0621Z" fill="#0C2231"/>
<path fill-rule="evenodd" clip-rule="evenodd" d="M62.203 8.93638C62.3014 9.50404 61.9287 10.0453 61.3705 10.1454L21.8184 17.2367C21.2602 17.3368 20.7279 16.9577 20.6295 16.3901C20.5311 15.8224 20.9038 15.2811 21.462 15.181L61.0141 8.08976C61.5723 7.98968 62.1046 8.36872 62.203 8.93638Z" fill="#0C2231"/>
<path fill-rule="evenodd" clip-rule="evenodd" d="M65.8044 24.2177C66.3712 24.2177 66.8307 24.6849 66.8307 25.2613V63.4072C66.8307 63.9836 66.3712 64.4509 65.8044 64.4509C65.2376 64.4509 64.7781 63.9836 64.7781 63.4072V25.2613C64.7781 24.6849 65.2376 24.2177 65.8044 24.2177Z" fill="#0C2231"/>
<path fill-rule="evenodd" clip-rule="evenodd" d="M75.692 60.9566C75.9243 61.155 76.0585 61.4476 76.0585 61.756V70.6427C76.0585 73.7515 73.6275 76.6501 70.5972 77.1901C70.5669 77.1955 70.5365 77.1995 70.5061 77.2021C68.9936 77.4487 67.5671 77.0657 66.5041 76.1756C65.418 75.2662 64.7781 73.8828 64.7781 72.2938V63.4072C64.7781 62.9005 65.1359 62.4671 65.6266 62.3793L74.8544 60.7281C75.1531 60.6747 75.4597 60.7583 75.692 60.9566ZM70.3175 75.1201C72.3511 74.7163 74.0059 72.6929 74.0059 70.6427V62.9994L66.8307 64.2833V72.2938C66.8307 73.2969 67.2243 74.0748 67.8088 74.5642C68.3947 75.0548 69.2394 75.3108 70.2416 75.1307C70.2669 75.1262 70.2922 75.1226 70.3175 75.1201Z" fill="#0C2231"/>
<path fill-rule="evenodd" clip-rule="evenodd" d="M65.107 9.09901C66.1921 10.0085 66.8307 11.3919 66.8307 12.9787V25.2613C66.8307 25.8377 66.3712 26.305 65.8044 26.305C65.2376 26.305 64.7781 25.8377 64.7781 25.2613V12.9787C64.7781 11.977 64.3852 11.199 63.8015 10.7098C63.2166 10.2196 62.3735 9.96382 61.3722 10.1451L61.3697 10.1455C60.3596 10.3258 59.4099 10.9156 58.7135 11.7503L58.7121 11.752C58.0122 12.5874 57.6065 13.6153 57.6065 14.6334V21.8256C57.6065 22.4021 57.147 22.8693 56.5802 22.8693C56.0134 22.8693 55.5539 22.4021 55.5539 21.8256V14.6334C55.5539 13.0562 56.176 11.5609 57.149 10.3991C58.1184 9.23739 59.4793 8.36398 61.0137 8.08982C62.5608 7.81007 64.0233 8.19067 65.107 9.09901Z" fill="#0C2231"/>
<path fill-rule="evenodd" clip-rule="evenodd" d="M22.651 16.0284C22.749 16.5962 22.3758 17.1372 21.8176 17.2368C19.7528 17.6053 18.0544 19.6536 18.0544 21.7283V27.6763L56.4056 20.8014C56.9638 20.7013 57.4961 21.0804 57.5945 21.6481C57.6928 22.2157 57.3201 22.757 56.7619 22.8571L17.2066 29.9483C16.9078 30.002 16.601 29.9184 16.3685 29.7201C16.136 29.5218 16.0018 29.2291 16.0018 28.9205V21.7283C16.0018 18.6188 18.4369 15.7209 21.4628 15.1809C22.0211 15.0812 22.5531 15.4607 22.651 16.0284Z" fill="#0C2231"/>
<path fill-rule="evenodd" clip-rule="evenodd" d="M57.4239 60.5609C57.9907 60.5609 58.4502 61.0282 58.4502 61.6046V71.7819C58.4502 72.1354 58.2742 72.4649 57.9826 72.6574C57.691 72.8498 57.3234 72.8791 57.0059 72.735L54.0951 71.4147L51.0983 73.8484C50.7902 74.0986 50.3683 74.1472 50.0129 73.9733C49.6576 73.7994 49.4316 73.4339 49.4316 73.0328V62.8556C49.4316 62.2792 49.8911 61.8119 50.4579 61.8119C51.0247 61.8119 51.4842 62.2792 51.4842 62.8556V70.8637L53.3023 69.3873C53.6021 69.1438 54.0104 69.0907 54.3607 69.2497L56.3976 70.1736V61.6046C56.3976 61.0282 56.8571 60.5609 57.4239 60.5609Z" fill="#0C2231"/>
<path fill-rule="evenodd" clip-rule="evenodd" d="M58.8569 51.0491C60.1981 52.173 60.9956 53.8871 60.9956 55.8724C60.9956 58.487 59.6265 60.9545 57.6333 62.5096C57.3548 62.7301 57.0594 62.9313 56.7592 63.1105L56.7581 63.1111C55.9534 63.5899 55.0669 63.939 54.1228 64.1102L54.1192 64.1108C52.8228 64.341 51.5782 64.2032 50.4899 63.7438C48.3116 62.8278 46.8898 60.6819 46.8898 58.0319C46.8898 56.7249 47.2325 55.4596 47.8198 54.3299C48.9908 52.0593 51.1938 50.2559 53.7641 49.7939L53.7651 49.7937C55.7016 49.4477 57.5173 49.9264 58.8569 51.0491ZM54.1208 51.8495C55.5128 51.6009 56.7103 51.9549 57.5516 52.66C58.3915 53.3638 58.943 54.4726 58.943 55.8724C58.943 57.7556 57.9385 59.6418 56.3813 60.8556L56.3747 60.8607C56.1722 61.0212 55.9513 61.1724 55.7211 61.3097C55.1085 61.6741 54.4501 61.9304 53.7643 62.0549C52.828 62.2208 51.9817 62.1135 51.2767 61.8159L51.2752 61.8153C49.9022 61.2384 48.9424 59.8805 48.9424 58.0319C48.9424 57.0972 49.1878 56.164 49.6351 55.3042L49.6351 55.3042L49.6369 55.3007C50.5435 53.5417 52.2394 52.1879 54.1208 51.8495Z" fill="#0C2231"/>
<path fill-rule="evenodd" clip-rule="evenodd" d="M58.4346 32.6796C58.5331 33.2473 58.1604 33.7886 57.6022 33.8888L28.6452 39.0803C28.0869 39.1799 27.555 38.8003 27.4571 38.2326C27.3592 37.6648 27.7324 37.1239 28.2907 37.0243L57.2456 31.8331C57.8038 31.733 58.3361 32.112 58.4346 32.6796Z" fill="#0C2231"/>
<path fill-rule="evenodd" clip-rule="evenodd" d="M58.4346 42.0171C58.533 42.5847 58.1603 43.126 57.6021 43.2261L28.6462 48.4174C28.088 48.5175 27.5557 48.1385 27.4573 47.5709C27.3588 47.0033 27.7315 46.4619 28.2897 46.3618L57.2458 41.1704C57.804 41.0703 58.3363 41.4494 58.4346 42.0171Z" fill="#0C2231"/>
<path fill-rule="evenodd" clip-rule="evenodd" d="M43.9566 54.4151C44.0551 54.9827 43.6823 55.524 43.1241 55.6241L28.6461 58.2198C28.0879 58.3199 27.5556 57.9408 27.4572 57.3732C27.3588 56.8055 27.7316 56.2642 28.2898 56.1641L42.7678 53.5685C43.326 53.4684 43.8582 53.8474 43.9566 54.4151Z" fill="#0C2231"/>
</g>
<defs>
<clipPath id="clip0_278_661">
<rect width="64.8" height="81" fill="white" transform="translate(16 8)"/>
</clipPath>
</defs>
</svg>
