<svg width="96" height="96" viewBox="0 0 96 96" fill="none" xmlns="http://www.w3.org/2000/svg">
<g clip-path="url(#clip0_278_659)">
<path d="M63.4693 83.0325L35.9241 87.8459C33.1295 88.3334 30.8626 86.484 30.8626 83.7135V23.6194C30.8626 20.8489 33.1295 18.2039 35.9241 17.7164L63.4693 12.903C66.264 12.4156 68.5308 14.265 68.5308 17.0354V77.1296C68.5308 79.9 66.264 82.5451 63.4693 83.0325Z" fill="#0C2231"/>
<path d="M35.0311 89C33.7513 89 32.5691 88.5878 31.6255 87.8029C30.436 86.8137 29.7816 85.3622 29.7816 83.7135V23.6194C29.7816 20.3005 32.3991 17.2433 35.7397 16.6591L63.2813 11.8421C64.9697 11.5482 66.564 11.9389 67.7716 12.9424C68.961 13.9316 69.6154 15.3832 69.6154 17.0319V77.1295C69.6154 80.4484 66.9979 83.5056 63.6573 84.0898L36.1121 88.9032C35.7469 88.9677 35.3818 89 35.0275 89H35.0311ZM64.3587 13.8994C64.1309 13.8994 63.8995 13.9209 63.6609 13.9603L36.1157 18.7773C33.8597 19.1715 31.9508 21.3901 31.9508 23.6194V83.7135C31.9508 84.717 32.3305 85.5844 33.0174 86.1578C33.726 86.7492 34.6949 86.9714 35.7397 86.7886L63.2849 81.9752C65.5409 81.581 67.4498 79.3624 67.4498 77.1331V17.0354C67.4498 16.0319 67.0702 15.1646 66.3833 14.5911C65.8337 14.1359 65.1324 13.8994 64.3587 13.8994Z" fill="#0C2231"/>
<path d="M59.6913 79.2836L32.1461 84.097C29.3514 84.5844 27.0846 82.735 27.0846 79.9645V19.8704C27.0846 17.0999 29.3514 14.4549 32.1461 13.9675L59.6913 9.15405C62.486 8.66662 64.7528 10.516 64.7528 13.2865V73.3806C64.7528 76.1511 62.486 78.7961 59.6913 79.2836Z" fill="white"/>
<path d="M31.2495 85.256C29.9696 85.256 28.7874 84.8438 27.8438 84.0589C26.6544 83.0697 26 81.6181 26 79.9695V19.8718C26 16.5529 28.6175 13.4957 31.9581 12.9115L59.5033 8.0981C61.1917 7.8042 62.786 8.19487 63.9935 9.19841C65.183 10.1876 65.8374 11.6392 65.8374 13.2878V73.3819C65.8374 76.7008 63.2199 79.758 59.8793 80.3422L32.3341 85.1556C31.9689 85.2201 31.6038 85.2524 31.2495 85.2524V85.256ZM60.5771 10.1518C60.3493 10.1518 60.1179 10.1733 59.8793 10.2127L32.3341 15.0297C30.0781 15.4239 28.1692 17.6425 28.1692 19.8718V79.9659C28.1692 80.9694 28.5488 81.8368 29.2357 82.4102C29.9443 83.0016 30.9096 83.2238 31.9581 83.041L59.5033 78.2276C61.7593 77.8334 63.6682 75.6148 63.6682 73.3855V13.2878C63.6682 12.2843 63.2886 11.4169 62.6016 10.8435C62.0521 10.3883 61.3507 10.1518 60.5807 10.1518H60.5771Z" fill="#0C2231"/>
<path d="M39.8937 19.1715C39.3767 19.1715 38.9212 18.806 38.8272 18.2827C38.7224 17.6985 39.1164 17.1394 39.7057 17.0354L47.2798 15.7129C47.8691 15.609 48.4331 15.9996 48.5344 16.5838C48.6392 17.168 48.2451 17.7272 47.6558 17.8311L40.0817 19.1536C40.0166 19.1644 39.9552 19.1715 39.8937 19.1715Z" fill="#0C2231"/>
<path d="M51.94 17.0641C51.8713 17.0641 51.799 17.057 51.7303 17.0426C51.658 17.0283 51.5929 17.0068 51.5242 16.9817C51.4592 16.953 51.3977 16.9208 51.3399 16.8814C51.2784 16.8419 51.2242 16.7989 51.1736 16.7487C50.9711 16.5516 50.8554 16.2721 50.8554 15.9889C50.8554 15.9172 50.8626 15.8491 50.8771 15.7775C50.8916 15.7094 50.9133 15.6413 50.9386 15.5767C50.9675 15.5122 51 15.4513 51.0398 15.3904C51.0796 15.333 51.1229 15.2793 51.1736 15.2291C51.2242 15.1789 51.2784 15.1323 51.3399 15.0929C51.3977 15.0571 51.4592 15.0212 51.5242 14.9961C51.5929 14.9675 51.658 14.9495 51.7303 14.9352C51.8677 14.9065 52.0123 14.9065 52.1533 14.9352C52.222 14.9495 52.2907 14.9675 52.3558 14.9961C52.4208 15.0212 52.4823 15.0571 52.5438 15.0929C52.6016 15.1323 52.6558 15.1789 52.7065 15.2291C52.7571 15.2793 52.8041 15.333 52.8438 15.3904C52.88 15.4513 52.9161 15.5122 52.9415 15.5767C52.9704 15.6413 52.9885 15.7094 53.0029 15.7775C53.0174 15.8491 53.0246 15.9172 53.0246 15.9889C53.0246 16.0606 53.0174 16.1287 53.0029 16.2004C52.9885 16.2685 52.9704 16.3366 52.9415 16.4011C52.9161 16.4656 52.88 16.5265 52.8438 16.5875C52.8041 16.6448 52.7571 16.6986 52.7065 16.7487C52.6558 16.7989 52.6016 16.8419 52.5438 16.8814C52.4823 16.9208 52.4208 16.953 52.3558 16.9817C52.2907 17.0068 52.222 17.0283 52.1533 17.0426C52.0846 17.057 52.0123 17.0641 51.94 17.0641Z" fill="#0C2231"/>
<path d="M38.5127 77.9897C37.9957 77.9897 37.5402 77.6241 37.4462 77.1008C37.3413 76.5166 37.7354 75.9575 38.3247 75.8536L53.1295 73.2659C53.7188 73.162 54.2828 73.5526 54.384 74.1368C54.4888 74.721 54.0948 75.2801 53.5055 75.3841L38.7007 77.9718C38.6356 77.9825 38.5741 77.9897 38.5127 77.9897Z" fill="#0C2231"/>
<path d="M50.6096 59.7325L48.4404 60.1124V47.5646C48.4404 44.9948 50.5481 42.5361 53.1403 42.0845L57.5474 41.314V43.4644L53.1403 44.235C51.7448 44.4787 50.6096 45.8012 50.6096 47.1847V59.7325Z" fill="#0C2231"/>
<path d="M55.1649 48.1524L53.5127 46.7582L57.3486 42.2852L53.6465 39.2639L55.0239 37.6044L59.5756 41.3211C59.7998 41.5039 59.9408 41.7691 59.9661 42.0558C59.9914 42.3426 59.901 42.6293 59.713 42.8479L55.1613 48.1559L55.1649 48.1524Z" fill="#0C2231"/>
<path d="M41.47 37.6331L39.8178 36.2389L44.3695 30.9309C44.7527 30.4829 45.4288 30.422 45.8843 30.7983L50.436 34.515L49.0586 36.1744L45.3312 33.1315L41.4736 37.6331H41.47Z" fill="#0C2231"/>
<path d="M41.9509 61.245L39.7817 61.6249V52.6611C39.7817 51.2777 38.6465 50.3494 37.2509 50.5931L32.8438 51.3637V49.2132L37.2509 48.4426C39.8431 47.9911 41.9509 49.7114 41.9509 52.2812V61.245Z" fill="#0C2231"/>
<path d="M46.2784 60.4887L44.1092 60.865V33.325L46.2784 32.9451V60.4887Z" fill="#0C2231"/>
<path d="M35.3601 55.0696L30.8084 51.353C30.5842 51.1702 30.4432 50.9049 30.4179 50.6182C30.3926 50.3315 30.483 50.0448 30.671 49.8261L35.2227 44.5181L36.8749 45.9123L33.0391 50.3853L36.7412 53.4066L35.3637 55.0661L35.3601 55.0696Z" fill="#0C2231"/>
</g>
<defs>
<clipPath id="clip0_278_659">
<rect width="43.6154" height="81" fill="white" transform="translate(26 8)"/>
</clipPath>
</defs>
</svg>
