<svg width="24" height="24" viewBox="0 0 24 24" fill="none" xmlns="http://www.w3.org/2000/svg">
<path fill-rule="evenodd" clip-rule="evenodd" d="M12 4C7.58172 4 4 7.58172 4 12C4 16.4183 7.58172 20 12 20C16.4183 20 20 16.4183 20 12C20 7.58172 16.4183 4 12 4ZM2 12C2 6.47715 6.47715 2 12 2C17.5228 2 22 6.47715 22 12C22 17.5228 17.5228 22 12 22C6.47715 22 2 17.5228 2 12ZM11 18V10H13V18H11ZM13.375 7C13.375 7.75939 12.7594 8.375 12 8.375C11.2406 8.375 10.625 7.75939 10.625 7C10.625 6.24061 11.2406 5.625 12 5.625C12.7594 5.625 13.375 6.24061 13.375 7Z" fill="#0C2231"/>
</svg>
