<svg width="24" height="24" viewBox="0 0 24 24" fill="none" xmlns="http://www.w3.org/2000/svg">
<path fill-rule="evenodd" clip-rule="evenodd" d="M21.9635 3.26767C22.06 2.92028 21.9621 2.54785 21.7071 2.29292C21.4522 2.03798 21.0798 1.94001 20.7324 2.03651L2.73239 7.03651C2.35041 7.14261 2.06718 7.46435 2.01036 7.85669C1.95353 8.24904 2.13385 8.63791 2.47003 8.84802L10.2743 13.7257L15.152 21.53C15.3621 21.8662 15.751 22.0465 16.1434 21.9897C16.5357 21.9329 16.8574 21.6496 16.9635 21.2677L21.9635 3.26767ZM10.8554 11.7304L5.45591 8.3557L17.6049 4.98099L10.8554 11.7304ZM12.2697 13.1446L15.6444 18.5441L19.0191 6.39521L12.2697 13.1446Z" fill="#0C2231"/>
</svg>
